<mxfile host="app.diagrams.net" modified="2022-12-03T14:24:15.990Z" agent="5.0 (Windows NT 10.0; Win64; x64) AppleWebKit/537.36 (KHTML, like Gecko) Chrome/107.0.0.0 Safari/537.36" etag="ybHo8AXtYN7br0wZVLp5" version="20.6.0" type="github">
  <diagram id="J12J_WTNxg8NLnjg_Z4e" name="Use-case diagram ">
    <mxGraphModel dx="1038" dy="579" grid="1" gridSize="10" guides="1" tooltips="1" connect="1" arrows="1" fold="1" page="1" pageScale="1" pageWidth="1169" pageHeight="1654" math="0" shadow="0">
      <root>
        <mxCell id="0" />
        <mxCell id="1" parent="0" />
        <mxCell id="z73wqSKVuIR2Mj5EnDJt-1" value="" style="whiteSpace=wrap;html=1;aspect=fixed;" parent="1" vertex="1">
          <mxGeometry x="260" y="45" width="525" height="525" as="geometry" />
        </mxCell>
        <mxCell id="-nBARY6Js-zTFfsQv4vt-56" style="edgeStyle=orthogonalEdgeStyle;rounded=0;orthogonalLoop=1;jettySize=auto;html=1;" edge="1" parent="1" source="z73wqSKVuIR2Mj5EnDJt-2" target="-nBARY6Js-zTFfsQv4vt-55">
          <mxGeometry relative="1" as="geometry" />
        </mxCell>
        <mxCell id="z73wqSKVuIR2Mj5EnDJt-2" value="User" style="shape=umlActor;verticalLabelPosition=bottom;verticalAlign=top;html=1;outlineConnect=0;" parent="1" vertex="1">
          <mxGeometry x="100" y="80" width="30" height="60" as="geometry" />
        </mxCell>
        <mxCell id="-nBARY6Js-zTFfsQv4vt-2" value="&lt;b&gt;Chat Application System&lt;/b&gt;" style="text;html=1;strokeColor=none;fillColor=none;align=center;verticalAlign=middle;whiteSpace=wrap;rounded=0;" vertex="1" parent="1">
          <mxGeometry x="426" y="15" width="159" height="30" as="geometry" />
        </mxCell>
        <mxCell id="-nBARY6Js-zTFfsQv4vt-3" value="Login" style="ellipse;whiteSpace=wrap;html=1;" vertex="1" parent="1">
          <mxGeometry x="300" y="230" width="80" height="50" as="geometry" />
        </mxCell>
        <mxCell id="-nBARY6Js-zTFfsQv4vt-5" value="" style="endArrow=classic;html=1;rounded=0;entryX=0;entryY=0.5;entryDx=0;entryDy=0;" edge="1" parent="1" target="-nBARY6Js-zTFfsQv4vt-3">
          <mxGeometry width="50" height="50" relative="1" as="geometry">
            <mxPoint x="140" y="140" as="sourcePoint" />
            <mxPoint x="210" y="210" as="targetPoint" />
          </mxGeometry>
        </mxCell>
        <mxCell id="-nBARY6Js-zTFfsQv4vt-7" value="logout" style="ellipse;whiteSpace=wrap;html=1;" vertex="1" parent="1">
          <mxGeometry x="420" y="165" width="80" height="50" as="geometry" />
        </mxCell>
        <mxCell id="-nBARY6Js-zTFfsQv4vt-9" value="send and received messgae" style="ellipse;whiteSpace=wrap;html=1;" vertex="1" parent="1">
          <mxGeometry x="460.5" y="50" width="90" height="60" as="geometry" />
        </mxCell>
        <mxCell id="-nBARY6Js-zTFfsQv4vt-10" value="Connect with other user" style="ellipse;whiteSpace=wrap;html=1;" vertex="1" parent="1">
          <mxGeometry x="670" y="60" width="90" height="60" as="geometry" />
        </mxCell>
        <mxCell id="-nBARY6Js-zTFfsQv4vt-11" value="chat" style="ellipse;whiteSpace=wrap;html=1;" vertex="1" parent="1">
          <mxGeometry x="300" y="110" width="80" height="50" as="geometry" />
        </mxCell>
        <mxCell id="-nBARY6Js-zTFfsQv4vt-12" value="modify profile" style="ellipse;whiteSpace=wrap;html=1;" vertex="1" parent="1">
          <mxGeometry x="540" y="450" width="90" height="60" as="geometry" />
        </mxCell>
        <mxCell id="-nBARY6Js-zTFfsQv4vt-13" value="firebase&amp;nbsp;" style="ellipse;whiteSpace=wrap;html=1;" vertex="1" parent="1">
          <mxGeometry x="530" y="270" width="90" height="60" as="geometry" />
        </mxCell>
        <mxCell id="-nBARY6Js-zTFfsQv4vt-14" value="groups search in database" style="ellipse;whiteSpace=wrap;html=1;" vertex="1" parent="1">
          <mxGeometry x="580" y="160" width="90" height="60" as="geometry" />
        </mxCell>
        <mxCell id="-nBARY6Js-zTFfsQv4vt-15" value="create group" style="ellipse;whiteSpace=wrap;html=1;" vertex="1" parent="1">
          <mxGeometry x="300" y="470" width="90" height="60" as="geometry" />
        </mxCell>
        <mxCell id="-nBARY6Js-zTFfsQv4vt-16" value="join in exit groups" style="ellipse;whiteSpace=wrap;html=1;" vertex="1" parent="1">
          <mxGeometry x="330" y="380" width="90" height="60" as="geometry" />
        </mxCell>
        <mxCell id="-nBARY6Js-zTFfsQv4vt-17" value="leave out group" style="ellipse;whiteSpace=wrap;html=1;" vertex="1" parent="1">
          <mxGeometry x="640" y="330" width="90" height="60" as="geometry" />
        </mxCell>
        <mxCell id="-nBARY6Js-zTFfsQv4vt-22" value="" style="endArrow=classic;html=1;rounded=0;entryX=0.017;entryY=0.67;entryDx=0;entryDy=0;entryPerimeter=0;" edge="1" parent="1" target="-nBARY6Js-zTFfsQv4vt-9">
          <mxGeometry width="50" height="50" relative="1" as="geometry">
            <mxPoint x="380" y="120" as="sourcePoint" />
            <mxPoint x="430" y="70" as="targetPoint" />
          </mxGeometry>
        </mxCell>
        <mxCell id="-nBARY6Js-zTFfsQv4vt-25" value="&amp;lt;&amp;lt;include&amp;gt;&amp;gt;" style="edgeLabel;html=1;align=center;verticalAlign=middle;resizable=0;points=[];" vertex="1" connectable="0" parent="-nBARY6Js-zTFfsQv4vt-22">
          <mxGeometry x="-0.2705" relative="1" as="geometry">
            <mxPoint x="10" as="offset" />
          </mxGeometry>
        </mxCell>
        <mxCell id="-nBARY6Js-zTFfsQv4vt-26" value="" style="endArrow=classic;html=1;rounded=0;" edge="1" parent="1" target="-nBARY6Js-zTFfsQv4vt-11">
          <mxGeometry width="50" height="50" relative="1" as="geometry">
            <mxPoint x="337.97" y="229.8" as="sourcePoint" />
            <mxPoint x="420" y="200.00000000000006" as="targetPoint" />
          </mxGeometry>
        </mxCell>
        <mxCell id="-nBARY6Js-zTFfsQv4vt-27" value="&amp;lt;&amp;lt;include&amp;gt;&amp;gt;" style="edgeLabel;html=1;align=center;verticalAlign=middle;resizable=0;points=[];" vertex="1" connectable="0" parent="-nBARY6Js-zTFfsQv4vt-26">
          <mxGeometry x="-0.2705" relative="1" as="geometry">
            <mxPoint x="10" as="offset" />
          </mxGeometry>
        </mxCell>
        <mxCell id="-nBARY6Js-zTFfsQv4vt-28" value="" style="endArrow=classic;html=1;rounded=0;" edge="1" parent="1" source="-nBARY6Js-zTFfsQv4vt-11" target="-nBARY6Js-zTFfsQv4vt-10">
          <mxGeometry width="50" height="50" relative="1" as="geometry">
            <mxPoint x="400" y="140" as="sourcePoint" />
            <mxPoint x="482.03" y="110.20000000000005" as="targetPoint" />
            <Array as="points">
              <mxPoint x="560" y="120" />
            </Array>
          </mxGeometry>
        </mxCell>
        <mxCell id="-nBARY6Js-zTFfsQv4vt-29" value="&amp;lt;&amp;lt;include&amp;gt;&amp;gt;" style="edgeLabel;html=1;align=center;verticalAlign=middle;resizable=0;points=[];" vertex="1" connectable="0" parent="-nBARY6Js-zTFfsQv4vt-28">
          <mxGeometry x="-0.2705" relative="1" as="geometry">
            <mxPoint x="10" as="offset" />
          </mxGeometry>
        </mxCell>
        <mxCell id="-nBARY6Js-zTFfsQv4vt-30" value="" style="endArrow=classic;html=1;rounded=0;exitX=0.422;exitY=1.05;exitDx=0;exitDy=0;exitPerimeter=0;" edge="1" parent="1" source="-nBARY6Js-zTFfsQv4vt-10" target="-nBARY6Js-zTFfsQv4vt-14">
          <mxGeometry width="50" height="50" relative="1" as="geometry">
            <mxPoint x="410" y="150" as="sourcePoint" />
            <mxPoint x="492.03" y="120.20000000000005" as="targetPoint" />
          </mxGeometry>
        </mxCell>
        <mxCell id="-nBARY6Js-zTFfsQv4vt-31" value="&amp;lt;&amp;lt;include&amp;gt;&amp;gt;" style="edgeLabel;html=1;align=center;verticalAlign=middle;resizable=0;points=[];" vertex="1" connectable="0" parent="-nBARY6Js-zTFfsQv4vt-30">
          <mxGeometry x="-0.2705" relative="1" as="geometry">
            <mxPoint x="10" as="offset" />
          </mxGeometry>
        </mxCell>
        <mxCell id="-nBARY6Js-zTFfsQv4vt-33" value="validate information" style="ellipse;whiteSpace=wrap;html=1;" vertex="1" parent="1">
          <mxGeometry x="250" y="320" width="80" height="50" as="geometry" />
        </mxCell>
        <mxCell id="-nBARY6Js-zTFfsQv4vt-34" value="" style="endArrow=classic;html=1;rounded=0;exitX=0.685;exitY=0.964;exitDx=0;exitDy=0;exitPerimeter=0;" edge="1" parent="1" source="-nBARY6Js-zTFfsQv4vt-3" target="-nBARY6Js-zTFfsQv4vt-33">
          <mxGeometry width="50" height="50" relative="1" as="geometry">
            <mxPoint x="420" y="160" as="sourcePoint" />
            <mxPoint x="502.03" y="130.20000000000005" as="targetPoint" />
          </mxGeometry>
        </mxCell>
        <mxCell id="-nBARY6Js-zTFfsQv4vt-35" value="&amp;lt;&amp;lt;include&amp;gt;&amp;gt;" style="edgeLabel;html=1;align=center;verticalAlign=middle;resizable=0;points=[];" vertex="1" connectable="0" parent="-nBARY6Js-zTFfsQv4vt-34">
          <mxGeometry x="-0.2705" relative="1" as="geometry">
            <mxPoint x="10" as="offset" />
          </mxGeometry>
        </mxCell>
        <mxCell id="-nBARY6Js-zTFfsQv4vt-38" value="" style="endArrow=classic;html=1;rounded=0;entryX=0;entryY=1;entryDx=0;entryDy=0;" edge="1" parent="1" target="-nBARY6Js-zTFfsQv4vt-7">
          <mxGeometry width="50" height="50" relative="1" as="geometry">
            <mxPoint x="380" y="249.8" as="sourcePoint" />
            <mxPoint x="462.03" y="220.00000000000006" as="targetPoint" />
          </mxGeometry>
        </mxCell>
        <mxCell id="-nBARY6Js-zTFfsQv4vt-39" value="&amp;lt;&amp;lt;include&amp;gt;&amp;gt;" style="edgeLabel;html=1;align=center;verticalAlign=middle;resizable=0;points=[];" vertex="1" connectable="0" parent="-nBARY6Js-zTFfsQv4vt-38">
          <mxGeometry x="-0.2705" relative="1" as="geometry">
            <mxPoint x="10" as="offset" />
          </mxGeometry>
        </mxCell>
        <mxCell id="-nBARY6Js-zTFfsQv4vt-55" value="registered user" style="shape=umlActor;verticalLabelPosition=bottom;verticalAlign=top;html=1;outlineConnect=0;" vertex="1" parent="1">
          <mxGeometry x="100" y="410" width="30" height="60" as="geometry" />
        </mxCell>
        <mxCell id="-nBARY6Js-zTFfsQv4vt-58" value="" style="endArrow=classic;html=1;rounded=0;" edge="1" parent="1" target="-nBARY6Js-zTFfsQv4vt-15">
          <mxGeometry width="50" height="50" relative="1" as="geometry">
            <mxPoint x="150" y="472.5" as="sourcePoint" />
            <mxPoint x="290" y="467.5" as="targetPoint" />
          </mxGeometry>
        </mxCell>
        <mxCell id="-nBARY6Js-zTFfsQv4vt-59" value="" style="endArrow=classic;html=1;rounded=0;" edge="1" parent="1" target="-nBARY6Js-zTFfsQv4vt-16">
          <mxGeometry width="50" height="50" relative="1" as="geometry">
            <mxPoint x="150" y="440" as="sourcePoint" />
            <mxPoint x="300.00025014074055" y="470.6994192502564" as="targetPoint" />
          </mxGeometry>
        </mxCell>
        <mxCell id="-nBARY6Js-zTFfsQv4vt-63" value="" style="endArrow=classic;html=1;rounded=0;entryX=1;entryY=0;entryDx=0;entryDy=0;" edge="1" parent="1" target="-nBARY6Js-zTFfsQv4vt-13">
          <mxGeometry width="50" height="50" relative="1" as="geometry">
            <mxPoint x="620" y="219.99999999999994" as="sourcePoint" />
            <mxPoint x="621.4981321302746" y="150.19778987709577" as="targetPoint" />
          </mxGeometry>
        </mxCell>
        <mxCell id="-nBARY6Js-zTFfsQv4vt-64" value="&amp;lt;&amp;lt;include&amp;gt;&amp;gt;" style="edgeLabel;html=1;align=center;verticalAlign=middle;resizable=0;points=[];" vertex="1" connectable="0" parent="-nBARY6Js-zTFfsQv4vt-63">
          <mxGeometry x="-0.2705" relative="1" as="geometry">
            <mxPoint x="10" as="offset" />
          </mxGeometry>
        </mxCell>
        <mxCell id="-nBARY6Js-zTFfsQv4vt-73" value="" style="endArrow=classic;html=1;rounded=0;entryX=0;entryY=1;entryDx=0;entryDy=0;" edge="1" parent="1" target="-nBARY6Js-zTFfsQv4vt-13">
          <mxGeometry width="50" height="50" relative="1" as="geometry">
            <mxPoint x="408.78" y="392.11999999999995" as="sourcePoint" />
            <mxPoint x="460.49572875253807" y="349.9976695296637" as="targetPoint" />
          </mxGeometry>
        </mxCell>
        <mxCell id="-nBARY6Js-zTFfsQv4vt-74" value="&amp;lt;&amp;lt;include&amp;gt;&amp;gt;" style="edgeLabel;html=1;align=center;verticalAlign=middle;resizable=0;points=[];" vertex="1" connectable="0" parent="-nBARY6Js-zTFfsQv4vt-73">
          <mxGeometry x="-0.2705" relative="1" as="geometry">
            <mxPoint x="10" as="offset" />
          </mxGeometry>
        </mxCell>
        <mxCell id="-nBARY6Js-zTFfsQv4vt-75" value="" style="endArrow=classic;html=1;rounded=0;entryX=0;entryY=0.5;entryDx=0;entryDy=0;" edge="1" parent="1" target="-nBARY6Js-zTFfsQv4vt-12">
          <mxGeometry width="50" height="50" relative="1" as="geometry">
            <mxPoint x="149.06" y="460" as="sourcePoint" />
            <mxPoint x="300.00025014074055" y="481.3994192502564" as="targetPoint" />
          </mxGeometry>
        </mxCell>
        <mxCell id="-nBARY6Js-zTFfsQv4vt-76" value="" style="endArrow=classic;html=1;rounded=0;" edge="1" parent="1" target="-nBARY6Js-zTFfsQv4vt-17">
          <mxGeometry width="50" height="50" relative="1" as="geometry">
            <mxPoint x="418.78" y="402.1199999999999" as="sourcePoint" />
            <mxPoint x="513.1801948466054" y="331.21320343559637" as="targetPoint" />
          </mxGeometry>
        </mxCell>
        <mxCell id="-nBARY6Js-zTFfsQv4vt-77" value="&amp;lt;&amp;lt;include&amp;gt;&amp;gt;" style="edgeLabel;html=1;align=center;verticalAlign=middle;resizable=0;points=[];" vertex="1" connectable="0" parent="-nBARY6Js-zTFfsQv4vt-76">
          <mxGeometry x="-0.2705" relative="1" as="geometry">
            <mxPoint x="10" as="offset" />
          </mxGeometry>
        </mxCell>
        <mxCell id="-nBARY6Js-zTFfsQv4vt-80" value="" style="endArrow=classic;html=1;rounded=0;entryX=0;entryY=0.5;entryDx=0;entryDy=0;" edge="1" parent="1" target="-nBARY6Js-zTFfsQv4vt-11">
          <mxGeometry width="50" height="50" relative="1" as="geometry">
            <mxPoint x="147.60999999999996" y="421.74999999999994" as="sourcePoint" />
            <mxPoint x="329.99798719452184" y="389.99901555294963" as="targetPoint" />
          </mxGeometry>
        </mxCell>
        <mxCell id="-nBARY6Js-zTFfsQv4vt-81" value="register" style="ellipse;whiteSpace=wrap;html=1;" vertex="1" parent="1">
          <mxGeometry x="470.5" y="220" width="80" height="50" as="geometry" />
        </mxCell>
        <mxCell id="-nBARY6Js-zTFfsQv4vt-82" value="" style="endArrow=classic;html=1;rounded=0;exitX=0.995;exitY=0.676;exitDx=0;exitDy=0;exitPerimeter=0;" edge="1" parent="1" source="-nBARY6Js-zTFfsQv4vt-3" target="-nBARY6Js-zTFfsQv4vt-81">
          <mxGeometry width="50" height="50" relative="1" as="geometry">
            <mxPoint x="390" y="259.79999999999995" as="sourcePoint" />
            <mxPoint x="441.7157287525381" y="217.67766952966372" as="targetPoint" />
          </mxGeometry>
        </mxCell>
        <mxCell id="-nBARY6Js-zTFfsQv4vt-83" value="&amp;lt;&amp;lt;include&amp;gt;&amp;gt;" style="edgeLabel;html=1;align=center;verticalAlign=middle;resizable=0;points=[];" vertex="1" connectable="0" parent="-nBARY6Js-zTFfsQv4vt-82">
          <mxGeometry x="-0.2705" relative="1" as="geometry">
            <mxPoint x="10" as="offset" />
          </mxGeometry>
        </mxCell>
        <mxCell id="-nBARY6Js-zTFfsQv4vt-84" value="" style="endArrow=classic;html=1;rounded=0;entryX=0.622;entryY=0.977;entryDx=0;entryDy=0;entryPerimeter=0;" edge="1" parent="1" source="-nBARY6Js-zTFfsQv4vt-12" target="-nBARY6Js-zTFfsQv4vt-13">
          <mxGeometry width="50" height="50" relative="1" as="geometry">
            <mxPoint x="418.78" y="402.1199999999999" as="sourcePoint" />
            <mxPoint x="553.1801948466054" y="331.21320343559637" as="targetPoint" />
          </mxGeometry>
        </mxCell>
        <mxCell id="-nBARY6Js-zTFfsQv4vt-85" value="&amp;lt;&amp;lt;include&amp;gt;&amp;gt;" style="edgeLabel;html=1;align=center;verticalAlign=middle;resizable=0;points=[];" vertex="1" connectable="0" parent="-nBARY6Js-zTFfsQv4vt-84">
          <mxGeometry x="-0.2705" relative="1" as="geometry">
            <mxPoint x="10" as="offset" />
          </mxGeometry>
        </mxCell>
      </root>
    </mxGraphModel>
  </diagram>
</mxfile>
